<?xml version="1.0" encoding="UTF-8" standalone="no"?>
<!DOCTYPE svg PUBLIC "-//W3C//DTD SVG 1.1//EN" "http://www.w3.org/Graphics/SVG/1.1/DTD/svg11.dtd">
<svg width="100%" height="100%" viewBox="0 0 4096 4096" version="1.1" xmlns="http://www.w3.org/2000/svg" xmlns:xlink="http://www.w3.org/1999/xlink" xml:space="preserve" xmlns:serif="http://www.serif.com/" style="fill-rule:evenodd;clip-rule:evenodd;stroke-linejoin:round;stroke-miterlimit:2;">
    <g transform="matrix(1,0,0,1,-56.244188,-18.701305)">
        <g transform="matrix(0.943563,0,0,0.943563,492.092487,-7.40837)">
            <path d="M200.579,249.92C200.579,127.258 300.165,27.671 422.827,27.671C545.49,27.671 645.076,127.258 645.076,249.92L645.076,3803.909C645.076,3926.571 545.49,4026.158 422.827,4026.158C300.165,4026.158 200.579,3926.571 200.579,3803.909L200.579,249.92Z"/>
        </g>
        <g transform="matrix(0.943563,0,0,0.943563,2918.467434,-7.40837)">
            <path d="M200.579,249.92C200.579,127.258 300.165,27.671 422.827,27.671C545.49,27.671 645.076,127.258 645.076,249.92L645.076,3803.909C645.076,3926.571 545.49,4026.158 422.827,4026.158C300.165,4026.158 200.579,3926.571 200.579,3803.909L200.579,249.92Z"/>
        </g>
        <g transform="matrix(0.913514,0.030049,0.030049,0.913514,390.495254,94.188864)">
            <path d="M579.981,3961.062C487.345,4053.698 341.719,4058.488 254.983,3971.753C168.248,3885.017 173.038,3739.391 265.674,3646.755L1638.888,2273.541C1731.524,2180.905 1877.151,2176.115 1963.886,2262.85C2050.621,2349.586 2045.831,2495.212 1953.196,2587.848L579.981,3961.062Z"/>
        </g>
        <g transform="matrix(-0.913514,0.030049,-0.030049,0.913514,3817.993123,94.188864)">
            <path d="M265.674,3646.755C173.038,3739.391 168.248,3885.017 254.983,3971.753C341.719,4058.488 487.345,4053.698 579.981,3961.062L1953.196,2587.848C2045.831,2495.212 2050.621,2349.586 1963.886,2262.85C1877.151,2176.115 1731.524,2180.905 1638.888,2273.541L265.674,3646.755Z"/>
        </g>
        <g transform="matrix(0.883465,0,0,0.943563,517.503351,-7.40837)">
            <path d="M422.827,472.169C291.821,472.169 185.46,372.583 185.46,249.92C185.46,127.258 291.821,27.671 422.827,27.671L3169.257,27.671C3300.263,27.671 3406.624,127.258 3406.624,249.92C3406.624,372.583 3300.263,472.169 3169.257,472.169L422.827,472.169Z"/>
        </g>
    </g>
    <path d="M834.813,209.706L3261.187,209.706L3261.187,3525.698L2048,2341.018L834.813,3521.159L834.813,209.706"/>
</svg>
