<?xml version="1.0" encoding="UTF-8" standalone="no"?>
<!DOCTYPE svg PUBLIC "-//W3C//DTD SVG 1.1//EN" "http://www.w3.org/Graphics/SVG/1.1/DTD/svg11.dtd">
<svg width="100%" height="100%" viewBox="0 0 4096 4096" version="1.1" xmlns="http://www.w3.org/2000/svg" xmlns:xlink="http://www.w3.org/1999/xlink" xml:space="preserve" xmlns:serif="http://www.serif.com/" style="fill-rule:evenodd;clip-rule:evenodd;stroke-linejoin:round;stroke-miterlimit:2;">
    <g transform="matrix(1.013337,0,0,1.013337,-27.31481,-27.31481)">
        <g transform="matrix(1,0,0,-1,123.680284,4108.731794)">
            <path d="M1807.395,98.366C1807.395,98.366 1168.833,955.471 785.568,1726.745C611.609,2076.816 492.575,2411.889 492.575,2650.032C492.575,3440.233 1134.118,4081.776 1924.32,4081.776C2714.521,4081.776 3356.064,3440.233 3356.064,2650.032C3356.064,2411.889 3237.03,2076.816 3063.072,1726.745C2679.806,955.471 2041.245,98.366 2041.245,98.366C2013.721,61.441 1970.374,39.687 1924.32,39.687C1878.266,39.687 1834.918,61.441 1807.395,98.366ZM1924.32,434.262C2122.359,712.95 2528.828,1307.064 2801.877,1856.54C2951.974,2158.592 3064.398,2444.555 3064.398,2650.032C3064.398,3279.258 2553.546,3790.11 1924.32,3790.11C1295.094,3790.11 784.242,3279.258 784.242,2650.032C784.242,2444.555 896.666,2158.592 1046.763,1856.54C1319.811,1307.064 1726.281,712.95 1924.32,434.262Z" style="fill:rgb(42,128,0);"/>
        </g>
        <g transform="matrix(0.767095,0,0,0.767095,515.531956,323.358512)">
            <path d="M1997.755,461.257C2590.796,461.257 3072.271,942.731 3072.271,1535.773C3072.271,2128.814 2590.796,2610.289 1997.755,2610.289C1404.713,2610.289 923.239,2128.814 923.239,1535.773C923.239,942.731 1404.713,461.257 1997.755,461.257ZM1997.755,841.479C1614.564,841.479 1303.461,1152.581 1303.461,1535.773C1303.461,1918.964 1614.564,2230.066 1997.755,2230.066C2380.946,2230.066 2692.049,1918.964 2692.049,1535.773C2692.049,1152.581 2380.946,841.479 1997.755,841.479Z" style="fill:rgb(42,128,0);"/>
        </g>
        <g transform="matrix(0.950522,-0.049478,-0.049478,0.950522,8.415586,15.577186)">
            <path d="M2736.639,2389.159C2673.475,2325.995 2668.4,2228.508 2725.314,2171.594C2782.227,2114.681 2879.714,2119.755 2942.878,2182.919L3763.431,3003.472C3826.595,3066.636 3831.669,3164.123 3774.756,3221.037C3717.843,3277.95 3620.355,3272.875 3557.191,3209.711L2736.639,2389.159Z" style="fill:rgb(42,128,0);"/>
        </g>
    </g>
</svg>
