<?xml version="1.0" encoding="UTF-8" standalone="no"?><!DOCTYPE svg PUBLIC "-//W3C//DTD SVG 1.1//EN" "http://www.w3.org/Graphics/SVG/1.1/DTD/svg11.dtd"><svg width="100%" height="100%" viewBox="0 0 4096 4096" version="1.1" xmlns="http://www.w3.org/2000/svg" xmlns:xlink="http://www.w3.org/1999/xlink" xml:space="preserve" xmlns:serif="http://www.serif.com/" style="fill-rule:evenodd;clip-rule:evenodd;stroke-linejoin:round;stroke-miterlimit:2;"><g><rect x="1845.423" y="1540.802" width="389.007" height="709.774"/><path d="M2555.198,2250.577l-709.774,0l-0,-389.007l709.774,0l0,389.007Z"/><path d="M438.581,628.032c0,-107.421 87.082,-194.503 194.503,-194.503l1220.413,0c51.585,-0 101.058,20.492 137.534,56.969c36.476,36.476 56.969,85.949 56.969,137.534l0,0.001c-0,107.421 -87.082,194.503 -194.503,194.503l-1220.413,-0c-107.421,0 -194.503,-87.082 -194.503,-194.503l0,-0.001Z"/><path d="M633.085,433.529c107.421,0 194.503,87.082 194.503,194.503l0,2834.884c-0,107.421 -87.082,194.503 -194.503,194.503l-0.001,0c-107.421,-0 -194.503,-87.082 -194.503,-194.503l0,-2834.884c0,-107.421 87.082,-194.503 194.503,-194.503l0.001,0Z"/><path d="M3662.471,3462.916c-0,107.421 -87.082,194.503 -194.503,194.503l-2834.884,0c-107.421,-0 -194.503,-87.082 -194.503,-194.503l0,-0.001c0,-107.421 87.082,-194.503 194.503,-194.503l2834.884,-0c107.421,0 194.503,87.082 194.503,194.503l0,0.001Z"/><path d="M3467.968,2045.474c107.421,0 194.503,87.082 194.503,194.503c0,310.05 0,912.888 0,1222.939c-0,107.421 -87.082,194.503 -194.503,194.503c-0,-0 -0.001,-0 -0.001,-0c-107.421,-0 -194.503,-87.082 -194.503,-194.503c-0,-310.05 -0,-912.888 -0,-1222.939c0,-107.421 87.082,-194.503 194.503,-194.503l0.001,0Z"/><path d="M3929.03,956.645c-75.958,75.958 -199.111,75.958 -275.069,0c-144.418,-144.418 -370.189,-370.189 -514.607,-514.607c-75.958,-75.958 -75.958,-199.111 0,-275.069c0,-0 0.001,-0.001 0.001,-0.001c75.958,-75.958 199.111,-75.958 275.069,-0c144.418,144.418 370.189,370.189 514.607,514.607c75.958,75.958 75.958,199.111 -0,275.069c-0,0 -0.001,0.001 -0.001,0.001Z"/><path d="M3929.031,685.002c75.958,75.958 75.958,199.111 0,275.069c-286.957,286.957 -946.58,946.58 -1233.537,1233.537c-75.958,75.958 -199.111,75.958 -275.069,-0c-0,-0 -0.001,-0.001 -0.001,-0.001c-75.958,-75.958 -75.958,-199.111 -0,-275.069c286.957,-286.957 946.58,-946.58 1233.537,-1233.537c75.958,-75.958 199.111,-75.958 275.069,0c0,0 0.001,0.001 0.001,0.001Z"/><path d="M3410.998,166.97c75.958,75.958 75.958,199.111 0,275.069c-286.957,286.957 -946.58,946.58 -1233.537,1233.537c-75.958,75.958 -199.111,75.958 -275.069,-0c-0,-0 -0.001,-0.001 -0.001,-0.001c-75.958,-75.958 -75.958,-199.111 -0,-275.069c286.957,-286.957 946.58,-946.58 1233.537,-1233.537c75.958,-75.958 199.111,-75.958 275.069,0c0,0 0.001,0.001 0.001,0.001Z"/></g></svg>