<?xml version="1.0" encoding="UTF-8" standalone="no"?>
<!DOCTYPE svg PUBLIC "-//W3C//DTD SVG 1.1//EN" "http://www.w3.org/Graphics/SVG/1.1/DTD/svg11.dtd">
<svg width="100%" height="100%" viewBox="0 0 4096 4096" version="1.1" xmlns="http://www.w3.org/2000/svg" xmlns:xlink="http://www.w3.org/1999/xlink" xml:space="preserve" xmlns:serif="http://www.serif.com/" style="fill-rule:evenodd;clip-rule:evenodd;stroke-linejoin:round;stroke-miterlimit:2;">
    <g transform="matrix(-0.858629,-0.858629,-0.634421,0.634421,4399.073388,919.063417)">
        <path d="M1116.596,497.475C1201.827,497.475 1283.566,543.298 1343.833,624.864C1404.1,706.43 1437.957,817.056 1437.957,932.407L1437.957,3290.685C1437.957,3406.036 1404.1,3516.663 1343.833,3598.228C1283.566,3679.794 1201.827,3725.617 1116.596,3725.617L1116.595,3725.617C1031.365,3725.617 949.625,3679.794 889.359,3598.228C829.092,3516.663 795.234,3406.036 795.234,3290.685L795.234,932.407C795.234,817.056 829.092,706.43 889.359,624.864C949.625,543.298 1031.365,497.475 1116.595,497.475L1116.596,497.475Z" style="fill:white;"/>
    </g>
    <g transform="matrix(-0.858629,0.858629,-0.634421,-0.634421,4399.073388,3176.936583)">
        <path d="M1116.596,497.475C1201.827,497.475 1283.566,543.298 1343.833,624.864C1404.1,706.43 1437.957,817.056 1437.957,932.407L1437.957,3290.685C1437.957,3406.036 1404.1,3516.663 1343.833,3598.228C1283.566,3679.794 1201.827,3725.617 1116.596,3725.617L1116.595,3725.617C1031.365,3725.617 949.625,3679.794 889.359,3598.228C829.092,3516.663 795.234,3406.036 795.234,3290.685L795.234,932.407C795.234,817.056 829.092,706.43 889.359,624.864C949.625,543.298 1031.365,497.475 1116.595,497.475L1116.596,497.475Z" style="fill:white;"/>
    </g>
</svg>
