<?xml version="1.0" encoding="UTF-8" standalone="no"?>
<!DOCTYPE svg PUBLIC "-//W3C//DTD SVG 1.1//EN" "http://www.w3.org/Graphics/SVG/1.1/DTD/svg11.dtd">
<svg width="100%" height="100%" viewBox="0 0 4096 4096" version="1.1" xmlns="http://www.w3.org/2000/svg" xmlns:xlink="http://www.w3.org/1999/xlink" xml:space="preserve" xmlns:serif="http://www.serif.com/" style="fill-rule:evenodd;clip-rule:evenodd;stroke-linejoin:round;stroke-miterlimit:2;">
    <g transform="matrix(0,-0.502953,0.730377,0,572.078609,4512.402204)">
        <path d="M1214.64,275.972C1428.22,275.972 1601.362,395.2 1601.362,542.276L1601.362,3499.255C1601.362,3646.332 1428.22,3765.56 1214.64,3765.56L1214.637,3765.56C1001.056,3765.56 827.915,3646.332 827.915,3499.255C827.915,2850.028 827.915,1191.504 827.915,542.276C827.915,395.2 1001.056,275.972 1214.637,275.972C1214.638,275.972 1214.639,275.972 1214.64,275.972Z" style="fill:white;"/>
    </g>
    <g transform="matrix(0,-0.502953,0.633169,-0,768.514514,805.409526)">
        <path d="M1214.64,275.972C1317.205,275.972 1415.569,308.336 1488.093,365.945C1560.618,423.555 1601.362,501.69 1601.362,583.162L1601.362,3458.37C1601.362,3539.842 1560.618,3617.977 1488.093,3675.586C1415.569,3733.196 1317.205,3765.56 1214.64,3765.56L1214.637,3765.56C1112.072,3765.56 1013.708,3733.196 941.183,3675.586C868.659,3617.977 827.915,3539.842 827.915,3458.37L827.915,583.162C827.915,501.69 868.659,423.555 941.183,365.945C1013.708,308.336 1112.072,275.972 1214.637,275.972L1214.64,275.972Z" style="fill:white;"/>
    </g>
    <g transform="matrix(0.502953,-0,0,0.300334,526.848873,-82.883765)">
        <path d="M1214.64,275.972C1428.22,275.972 1601.362,565.922 1601.362,923.593L1601.362,3117.939C1601.362,3475.61 1428.22,3765.56 1214.64,3765.56L1214.637,3765.56C1001.056,3765.56 827.915,3475.61 827.915,3117.939L827.915,923.593C827.915,565.922 1001.056,275.972 1214.637,275.972L1214.64,275.972Z" style="fill:white;"/>
    </g>
    <g transform="matrix(0.502953,-0,0,0.529995,1437.966138,1336.885473)">
        <path d="M1214.64,275.972C1428.22,275.972 1601.362,440.279 1601.362,642.962C1601.362,1313.283 1601.362,2728.249 1601.362,3398.57C1601.362,3601.253 1428.22,3765.56 1214.64,3765.56L1214.637,3765.56C1001.056,3765.56 827.915,3601.253 827.915,3398.57L827.915,642.962C827.915,440.279 1001.056,275.972 1214.637,275.972C1214.638,275.972 1214.639,275.972 1214.64,275.972Z" style="fill:white;"/>
    </g>
    <g transform="matrix(0.499239,0.061011,-0.064291,0.526081,2250.002469,1270.688459)">
        <path d="M1214.64,275.972C1428.22,275.972 1601.362,440.279 1601.362,642.962L1601.362,3398.57C1601.362,3601.253 1428.22,3765.56 1214.64,3765.56L1214.637,3765.56C1001.056,3765.56 827.915,3601.253 827.915,3398.57L827.915,642.962C827.915,440.279 1001.056,275.972 1214.637,275.972C1214.638,275.972 1214.639,275.972 1214.64,275.972Z" style="fill:white;"/>
    </g>
    <g transform="matrix(-0.499239,0.061011,0.064291,0.526081,1847.741537,1276.061122)">
        <path d="M1214.64,275.972C1428.22,275.972 1601.362,440.279 1601.362,642.962L1601.362,3398.57C1601.362,3601.253 1428.22,3765.56 1214.64,3765.56C1214.639,3765.56 1214.638,3765.56 1214.637,3765.56C1001.056,3765.56 827.915,3601.253 827.915,3398.57L827.915,642.962C827.915,440.279 1001.056,275.972 1214.637,275.972L1214.64,275.972Z" style="fill:white;"/>
    </g>
    <g transform="matrix(0.502953,-0,0,0.300334,2347.339398,-82.883765)">
        <path d="M1214.64,275.972C1428.22,275.972 1601.362,565.922 1601.362,923.593L1601.362,3117.939C1601.362,3475.61 1428.22,3765.56 1214.64,3765.56C1214.639,3765.56 1214.638,3765.56 1214.637,3765.56C1001.056,3765.56 827.915,3475.61 827.915,3117.939C827.915,2492.126 827.915,1549.406 827.915,923.593C827.915,565.922 1001.056,275.972 1214.637,275.972C1214.638,275.972 1214.639,275.972 1214.64,275.972Z" style="fill:white;"/>
    </g>
    <g transform="matrix(-0,-0.502953,1.173777,0,-323.92924,1464.445605)">
        <path d="M1214.64,275.972C1428.22,275.972 1601.362,350.161 1601.362,441.679L1601.362,3599.853C1601.362,3691.371 1428.22,3765.56 1214.64,3765.56L1214.637,3765.56C1001.056,3765.56 827.915,3691.371 827.915,3599.853C827.915,3011.906 827.915,1029.626 827.915,441.679C827.915,350.161 1001.056,275.972 1214.637,275.972L1214.64,275.972Z" style="fill:white;"/>
    </g>
    <g transform="matrix(0.495386,-0.086914,0.172475,0.983057,-300.435027,526.9212)">
        <path d="M1214.64,275.972C1428.22,275.972 1601.362,363.222 1601.362,470.85C1601.362,1082.406 1601.362,2959.126 1601.362,3570.682C1601.362,3678.31 1428.22,3765.56 1214.64,3765.56L1214.637,3765.56C1001.056,3765.56 827.915,3678.31 827.915,3570.682L827.915,470.85C827.915,363.222 1001.056,275.972 1214.637,275.972L1214.64,275.972Z" style="fill:white;"/>
    </g>
    <g transform="matrix(0.495303,0.087387,-0.173421,0.98294,3195.293189,315.423929)">
        <path d="M1214.64,275.972C1428.22,275.972 1601.362,363.218 1601.362,470.841C1601.362,1082.39 1601.362,2959.142 1601.362,3570.691C1601.362,3678.314 1428.22,3765.56 1214.64,3765.56C1214.639,3765.56 1214.638,3765.56 1214.637,3765.56C1001.056,3765.56 827.915,3678.314 827.915,3570.691C827.915,2959.142 827.915,1082.39 827.915,470.841C827.915,363.218 1001.056,275.972 1214.637,275.972L1214.64,275.972Z" style="fill:white;"/>
    </g>
</svg>
